# File created by Blade
# Date/Time:  Wed Jan 21 17:10:37 2015
# Frame Rate: 120.000 fps
#------------------------------------------------------
:FULLY-SPECIFIED
:DEGREES
237
root 20.255500 19.594278 -17.339824 -161.684007 -4.444074 -179.356398
Spine 69.502669 5.467868 -1.688347
Head -1.892564 0.300503 5.466310
LeftShoulder 10.287441 -32.379080 -0.465792
LeftArm 16.616275 34.777379 -58.365943
LeftForeArm -5.376981 0.000000 19.136049
LeftHand -3.444086 -0.000000 15.262983
LeftHandThumb1 -26.253704 0.000000 33.147579
RightShoulder 10.172965 1.975212 -0.015865
RightArm 34.604316 -20.726361 45.156757
RightForeArm -27.295310 -0.000000 33.662181
RightHand -6.243557 -0.000000 -16.561019
RightHandThumb1 -24.326973 -0.000000 -32.862282
LeftUpLeg -93.688697 -1.424979 -8.286824
LeftLeg 111.821807 -0.000000 -0.000000
LeftFoot -54.696720 24.941609 -18.382023
LeftToeBase 22.289417 -0.000000 -0.000000
RightUpLeg -93.663213 6.075412 12.360040
RightLeg 109.618706 -0.000000 -0.000000
RightFoot -54.622016 -26.831521 20.779628
RightToeBase 22.168567 -0.000000 -0.000000
238
root 20.269674 19.267904 -17.364573 -162.229272 -4.425565 -179.186500
Spine 69.617353 5.542580 -1.508870
Head -1.428847 0.353512 5.519958
LeftShoulder 10.118997 -32.152856 -0.275555
LeftArm 16.532360 34.946684 -58.588099
LeftForeArm -5.367698 -0.000000 19.127357
LeftHand -3.855881 -0.000000 15.289797
LeftHandThumb1 -26.253704 0.000000 33.147579
RightShoulder 9.909979 1.219371 0.120718
RightArm 35.364153 -21.424409 43.937255
RightForeArm -27.409965 -0.000000 33.518698
RightHand -7.405275 -0.000000 -18.271216
RightHandThumb1 -24.326973 -0.000000 -32.862282
LeftUpLeg -94.164305 -1.296729 -8.265459
LeftLeg 113.194923 -0.000000 -0.000000
LeftFoot -54.989169 24.772906 -18.568732
LeftToeBase 22.153484 -0.000000 -0.000000
RightUpLeg -94.017926 6.320122 12.720756
RightLeg 110.865228 -0.000000 -0.000000
RightFoot -54.976916 -26.955798 21.133891
RightToeBase 21.976949 -0.000000 -0.000000
239
root 20.273206 18.951402 -17.387715 -162.826358 -4.383997 -179.088389
Spine 69.813337 5.629869 -1.366903
Head -1.070926 0.486811 5.571069
LeftShoulder 9.943606 -31.881965 -0.017334
LeftArm 16.548094 35.144067 -58.808664
LeftForeArm -5.237363 -0.000000 19.165801
LeftHand -4.458792 -0.000000 14.909674
LeftHandThumb1 -26.253704 0.000000 33.147579
RightShoulder 9.617482 0.491197 0.207271
RightArm 36.173980 -22.215452 42.608350
RightForeArm -27.908233 -0.000000 33.398001
RightHand -7.242312 -0.000000 -18.182950
RightHandThumb1 -24.326973 -0.000000 -32.862282
LeftUpLeg -94.490417 -1.260571 -8.282131
LeftLeg 114.458509 -0.000000 -0.000000
LeftFoot -55.341377 24.832406 -18.695164
LeftToeBase 22.115318 -0.000000 -0.000000
RightUpLeg -94.284392 6.480596 12.995426
RightLeg 112.035538 -0.000000 -0.000000
RightFoot -55.269815 -27.233906 21.262364
RightToeBase 21.994569 -0.000000 -0.000000
240
root 20.281179 18.636937 -17.397107 -163.286764 -4.388681 -178.956789
Spine 69.839120 5.626167 -1.193813
Head -0.641580 0.494586 5.521118
LeftShoulder 9.699768 -31.709411 0.170022
LeftArm 16.506891 35.785679 -58.894912
LeftForeArm -5.388151 0.000000 19.345290
LeftHand -5.082531 -0.000000 15.285071
LeftHandThumb1 -26.253704 0.000000 33.147579
RightShoulder 9.626979 0.698795 -0.006149
RightArm 35.628271 -22.840168 43.038679
RightForeArm -29.970007 0.000000 33.208988
RightHand -7.070503 -0.000000 -17.850217
RightHandThumb1 -24.326973 -0.000000 -32.862282
LeftUpLeg -95.027901 -1.192569 -8.329515
LeftLeg 115.684098 -0.000000 -0.000000
LeftFoot -55.659644 24.662298 -18.941244
LeftToeBase 22.083248 -0.000000 -0.000000
RightUpLeg -94.729587 6.632990 13.347625
RightLeg 113.177031 -0.000000 -0.000000
RightFoot -55.583690 -27.360629 21.485438
RightToeBase 21.735305 -0.000000 -0.000000
241
root 20.288032 18.323326 -17.412994 -163.855414 -4.377663 -178.837818
Spine 69.957486 5.666601 -1.018894
Head -0.240799 0.549660 5.534475
LeftShoulder 9.508982 -31.702822 0.430565
LeftArm 16.160856 36.054564 -59.433904
LeftForeArm -5.025001 -0.000000 19.387754
LeftHand -5.721773 0.000000 16.001119
LeftHandThumb1 -26.253704 0.000000 33.147579
RightShoulder 9.596663 0.881057 -0.189366
RightArm 35.187606 -23.607328 43.300371
RightForeArm -31.543313 -0.000000 32.971185
RightHand -6.985901 -0.000000 -17.979083
RightHandThumb1 -24.326973 -0.000000 -32.862282
LeftUpLeg -95.445244 -1.126965 -8.339567
LeftLeg 116.916674 -0.000000 -0.000000
LeftFoot -55.807664 24.689755 -18.906265
LeftToeBase 22.026829 -0.000000 -0.000000
RightUpLeg -95.061369 6.793508 13.675095
RightLeg 114.349576 -0.000000 -0.000000
RightFoot -55.843836 -27.585687 21.692649
RightToeBase 21.919297 -0.000000 -0.000000
242
root 20.299564 18.015927 -17.423668 -164.427589 -4.339457 -178.642591
Spine 70.061314 5.776827 -0.716096
Head 0.206839 0.497980 5.585377
LeftShoulder 9.425595 -31.739095 0.689719
LeftArm 15.679084 36.196726 -60.153709
LeftForeArm -4.845067 0.000000 19.426740
LeftHand -6.421219 -0.000000 16.248610
LeftHandThumb1 -26.253704 0.000000 33.147579
RightShoulder 9.415245 0.658465 -0.302384
RightArm 35.195375 -24.307761 43.037703
RightForeArm -32.915785 -0.000000 32.778499
RightHand -7.191901 0.000000 -18.369407
RightHandThumb1 -24.326973 -0.000000 -32.862282
LeftUpLeg -95.867248 -1.008479 -8.299877
LeftLeg 118.135936 -0.000000 -0.000000
LeftFoot -56.013742 24.701054 -18.960428
LeftToeBase 21.906579 -0.000000 -0.000000
RightUpLeg -95.362017 7.000634 14.077549
RightLeg 115.428899 -0.000000 -0.000000
RightFoot -56.087715 -27.636784 21.937526
RightToeBase 21.524457 -0.000000 -0.000000
